<?xml version="1.0" encoding="utf-8"?>
<!-- Generator: Adobe Illustrator 28.3.0, SVG Export Plug-In . SVG Version: 6.00 Build 0)  -->
<svg version="1.1" id="Layer_1" xmlns="http://www.w3.org/2000/svg" xmlns:xlink="http://www.w3.org/1999/xlink" x="0px" y="0px"
	 viewBox="0 0 300 109.2" style="enable-background:new 0 0 300 109.2;" xml:space="preserve">
<style type="text/css">
	.st0{fill:#263C8D;}
	.st1{fill:#0AA6CA;}
	.st2{fill:#0EA7CA;}
	.st3{fill:#92BF54;}
	.st4{fill:#314692;}
	.st5{fill:#FED237;}
	.st6{fill:#CF268F;}
</style>
<g>
	<g>
		<g>
			<path class="st0" d="M137.9,42.5c-0.1-0.1-0.2-0.3-0.3-0.5l-4.3-17.2c0-0.1,0-0.1,0-0.2c0-0.3,0.2-0.4,0.5-0.4h2.2
				c0.3,0,0.5,0,0.6,0.1c0.1,0.1,0.2,0.2,0.2,0.4l2.7,12l3.3-10.6c0.1-0.2,0.2-0.4,0.3-0.5c0.1-0.1,0.3-0.1,0.5-0.1h1.3
				c0.2,0,0.4,0,0.5,0.1c0.1,0.1,0.2,0.2,0.3,0.5l3.3,10.6l2.7-12c0-0.2,0.1-0.3,0.2-0.4c0.1-0.1,0.3-0.1,0.6-0.1h2.2
				c0.3,0,0.5,0.1,0.5,0.4c0,0.1,0,0.2,0,0.2L150.8,42c-0.1,0.3-0.2,0.4-0.3,0.5c-0.1,0.1-0.3,0.2-0.6,0.2h-1.5
				c-0.3,0-0.5-0.1-0.6-0.2c-0.1-0.1-0.2-0.3-0.3-0.5l-3.3-10.9L140.9,42c-0.1,0.3-0.2,0.4-0.3,0.5c-0.1,0.1-0.3,0.2-0.6,0.2h-1.5
				C138.3,42.7,138.1,42.6,137.9,42.5z"/>
			<path class="st0" d="M159.1,41.2c-1.3-1.2-1.9-2.9-1.9-5.1c0-2.1,0.6-3.8,1.9-5.1c1.3-1.2,3.1-1.9,5.5-1.9s4.2,0.6,5.5,1.9
				c1.3,1.2,1.9,2.9,1.9,5.1c0,2.1-0.6,3.8-1.9,5.1c-1.3,1.2-3.1,1.9-5.5,1.9S160.4,42.5,159.1,41.2z M167.6,39.4
				c0.7-0.7,1-1.8,1-3.3c0-1.4-0.3-2.5-1-3.2c-0.7-0.7-1.7-1.1-3-1.1c-1.3,0-2.3,0.4-2.9,1.1c-0.7,0.7-1,1.8-1,3.2s0.3,2.5,1,3.3
				c0.7,0.8,1.7,1.1,2.9,1.1C165.9,40.5,166.9,40.1,167.6,39.4z"/>
			<path class="st0" d="M175,42.4c-0.2-0.2-0.2-0.4-0.2-0.7V30.3c0-0.3,0-0.5,0.1-0.6c0.1-0.1,0.3-0.2,0.6-0.2h1.6
				c0.2,0,0.3,0,0.4,0.1c0.1,0.1,0.1,0.2,0.2,0.4l0.1,1c1.1-1.3,2.5-1.9,4.2-1.9c0.8,0,1.4,0.1,1.8,0.4c0.1,0.1,0.2,0.2,0.2,0.2
				c0,0.1,0,0.2,0,0.3l-0.5,1.6c-0.1,0.2-0.2,0.3-0.3,0.3l-0.2-0.1c-0.4-0.2-0.9-0.3-1.5-0.3c-0.9,0-1.7,0.3-2.3,0.8
				c-0.6,0.5-0.9,1.2-0.9,2.1v7.2c0,0.3-0.1,0.6-0.2,0.7c-0.2,0.2-0.4,0.2-0.8,0.2h-1.4C175.4,42.7,175.1,42.6,175,42.4z"/>
			<path class="st0" d="M186.3,42.4c-0.2-0.2-0.2-0.4-0.2-0.7V25.1c0-0.3,0.1-0.6,0.2-0.8c0.2-0.2,0.4-0.2,0.8-0.2h1.4
				c0.4,0,0.6,0.1,0.8,0.2c0.2,0.2,0.2,0.4,0.2,0.8v16.6c0,0.3-0.1,0.6-0.2,0.7c-0.2,0.2-0.4,0.2-0.8,0.2h-1.4
				C186.7,42.7,186.5,42.6,186.3,42.4z M195.5,42.6c-0.1,0-0.2-0.1-0.3-0.2l-4.8-5.4c-0.2-0.2-0.3-0.4-0.4-0.5
				c-0.1-0.2-0.1-0.4-0.1-0.6c0-0.2,0-0.4,0.1-0.6c0.1-0.2,0.2-0.3,0.4-0.5l4.6-4.9c0.1-0.1,0.2-0.2,0.3-0.3c0.1,0,0.3-0.1,0.5-0.1
				h2.5c0.1,0,0.2,0,0.3,0.1c0.1,0.1,0.1,0.2,0.1,0.3c0,0.1-0.1,0.3-0.2,0.4l-5.4,5.5l5.6,6.1c0.1,0.1,0.2,0.2,0.2,0.4
				c0,0.1,0,0.2-0.1,0.3c-0.1,0.1-0.2,0.1-0.3,0.1h-2.6C195.7,42.7,195.6,42.7,195.5,42.6z"/>
			<path class="st0" d="M209.9,42.5c-0.2-0.1-0.2-0.4-0.2-0.7v-3.1H201c-0.5,0-0.7-0.2-0.7-0.7v-1.1c0-0.3,0-0.5,0.1-0.6
				c0.1-0.1,0.2-0.3,0.3-0.5l9.2-11.1c0.2-0.2,0.3-0.3,0.4-0.4c0.1-0.1,0.3-0.1,0.6-0.1h1.2c0.4,0,0.6,0.1,0.8,0.2
				c0.2,0.2,0.2,0.4,0.2,0.8V36h1.9c0.4,0,0.6,0.1,0.8,0.2c0.1,0.2,0.2,0.4,0.2,0.8v0.7c0,0.3-0.1,0.6-0.2,0.7
				c-0.1,0.1-0.4,0.2-0.8,0.2h-1.9v3.1c0,0.3-0.1,0.6-0.2,0.7c-0.2,0.1-0.4,0.2-0.8,0.2h-1.4C210.3,42.7,210.1,42.6,209.9,42.5z
				 M210.3,36v-7.8L204,36H210.3z"/>
			<path class="st0" d="M218.4,42.4c-0.2-0.2-0.2-0.4-0.2-0.7V25.1c0-0.3,0.1-0.6,0.2-0.8c0.2-0.2,0.4-0.2,0.8-0.2h1.4
				c0.4,0,0.6,0.1,0.8,0.2c0.2,0.2,0.2,0.4,0.2,0.8V40h8.4c0.4,0,0.6,0.1,0.8,0.2c0.1,0.2,0.2,0.4,0.2,0.8v0.7
				c0,0.3-0.1,0.6-0.2,0.7c-0.1,0.1-0.4,0.2-0.8,0.2h-10.8C218.9,42.7,218.6,42.6,218.4,42.4z"/>
			<path class="st0" d="M233.5,26.9c-0.2-0.3-0.4-0.6-0.4-0.9v-0.6c0-0.4,0.1-0.7,0.4-0.9c0.2-0.3,0.6-0.4,1-0.4h1.2
				c0.4,0,0.8,0.1,1,0.4c0.2,0.3,0.4,0.6,0.4,0.9V26c0,0.4-0.1,0.7-0.4,0.9c-0.2,0.3-0.6,0.4-1,0.4h-1.2
				C234.1,27.3,233.8,27.2,233.5,26.9z M233.7,42.4c-0.2-0.2-0.2-0.4-0.2-0.7V30.6c0-0.3,0.1-0.6,0.2-0.8c0.2-0.2,0.4-0.2,0.8-0.2
				h1.4c0.4,0,0.6,0.1,0.8,0.2s0.2,0.4,0.2,0.8v11.1c0,0.3-0.1,0.6-0.2,0.7s-0.4,0.2-0.8,0.2h-1.4C234.1,42.7,233.8,42.6,233.7,42.4
				z"/>
			<path class="st0" d="M241.7,42.4c-0.2-0.2-0.2-0.4-0.2-0.7v-9.6h-1.3c-0.4,0-0.6-0.1-0.8-0.2c-0.1-0.2-0.2-0.4-0.2-0.8v-0.6
				c0-0.3,0.1-0.6,0.2-0.7c0.1-0.1,0.4-0.2,0.8-0.2h1.3v-1c0-1.5,0.4-2.7,1.2-3.6c0.8-0.9,2-1.3,3.7-1.3c1.7,0,3,0.4,3.9,1.1
				c0.2,0.1,0.2,0.2,0.2,0.4c0,0.1,0,0.2-0.1,0.3l-0.7,1.1c-0.1,0.2-0.2,0.2-0.3,0.2c-0.1,0-0.2,0-0.3-0.1c-0.4-0.2-0.7-0.4-1-0.5
				c-0.3-0.1-0.7-0.2-1.1-0.2c-0.8,0-1.3,0.2-1.7,0.6s-0.5,1-0.5,1.8v1.1h3.4c0.4,0,0.6,0.1,0.8,0.2c0.1,0.1,0.2,0.4,0.2,0.7v0.6
				c0,0.3-0.1,0.6-0.2,0.8c-0.1,0.2-0.4,0.2-0.8,0.2H245v9.6c0,0.3-0.1,0.6-0.2,0.7c-0.2,0.2-0.4,0.2-0.8,0.2h-1.4
				C242.1,42.7,241.9,42.6,241.7,42.4z"/>
			<path class="st0" d="M255.4,42.4c-1.1-0.5-2.1-1.2-2.7-2.2c-0.7-1-1-2.3-1-3.8c0-2.3,0.6-4.1,1.9-5.4c1.3-1.2,3-1.8,5.4-1.8
				c2.3,0,4,0.6,5.2,1.8c1.2,1.2,1.8,2.9,1.8,5.1c0,0.6-0.3,1-0.9,1h-10c0,1.2,0.4,2.1,1.3,2.8c0.8,0.6,2,1,3.5,1
				c1.4,0,2.7-0.3,3.9-1c0.1-0.1,0.2-0.1,0.3-0.1c0.1,0,0.2,0.1,0.3,0.2l0.7,1.2c0.1,0.1,0.1,0.2,0.1,0.3c0,0.1-0.1,0.2-0.2,0.4
				c-0.7,0.5-1.6,0.8-2.4,1c-0.9,0.2-1.9,0.3-3,0.3C257.8,43.1,256.5,42.8,255.4,42.4z M262.7,35c0-1.1-0.3-2-0.9-2.7
				c-0.6-0.6-1.6-1-2.8-1c-1.3,0-2.3,0.3-2.9,1s-1,1.5-1,2.6H262.7z"/>
		</g>
	</g>
	<g>
		<g>
			<path class="st1" d="M133.2,66.9c-0.1-0.1-0.1-0.2-0.1-0.4v-8.2c0-0.2,0-0.3,0.1-0.4c0.1-0.1,0.2-0.1,0.4-0.1h3.5
				c1.1,0,1.9,0.3,2.5,0.8c0.5,0.5,0.8,1.3,0.8,2.3c0,1-0.3,1.7-0.8,2.3c-0.5,0.5-1.4,0.8-2.5,0.8h-2.2v2.6c0,0.2,0,0.3-0.1,0.4
				c-0.1,0.1-0.2,0.1-0.4,0.1h-0.7C133.4,67,133.3,67,133.2,66.9z M137,62.6c0.6,0,1-0.1,1.2-0.4c0.3-0.3,0.4-0.7,0.4-1.3
				c0-0.6-0.1-1-0.4-1.3c-0.3-0.3-0.7-0.4-1.2-0.4h-2.2v3.5H137z"/>
			<path class="st1" d="M142.5,66.9c-0.1-0.1-0.1-0.2-0.1-0.4v-8.2c0-0.2,0-0.3,0.1-0.4c0.1-0.1,0.2-0.1,0.4-0.1h3.5
				c1.1,0,1.8,0.2,2.4,0.7c0.5,0.5,0.8,1.2,0.8,2.2c0,0.6-0.1,1.2-0.4,1.6c-0.3,0.4-0.7,0.8-1.3,1l1.5,3.3c0,0.1,0,0.1,0,0.1
				c0,0.1-0.1,0.2-0.2,0.2H148c-0.1,0-0.2,0-0.3,0c-0.1,0-0.1-0.1-0.1-0.2l-1.4-3.2h-2.2v3c0,0.2,0,0.3-0.1,0.4
				c-0.1,0.1-0.2,0.1-0.4,0.1h-0.7C142.7,67,142.5,67,142.5,66.9z M146,62.2c0.6,0,1.1-0.1,1.4-0.4c0.3-0.2,0.4-0.6,0.4-1.2
				c0-0.5-0.1-0.9-0.4-1.2c-0.3-0.3-0.7-0.4-1.2-0.4h-2.2v3.1H146z"/>
			<path class="st1" d="M152,66.9c-0.1-0.1-0.1-0.2-0.1-0.4v-8.2c0-0.2,0-0.3,0.1-0.4c0.1-0.1,0.2-0.1,0.4-0.1h5.6
				c0.2,0,0.3,0,0.4,0.1c0.1,0.1,0.1,0.2,0.1,0.4v0.4c0,0.2,0,0.3-0.1,0.4s-0.2,0.1-0.4,0.1h-4.4v2.6h3.2c0.2,0,0.3,0,0.4,0.1
				c0.1,0.1,0.1,0.2,0.1,0.4v0.3c0,0.2,0,0.3-0.1,0.4c-0.1,0.1-0.2,0.1-0.4,0.1h-3.2v2.6h4.4c0.2,0,0.3,0,0.4,0.1
				c0.1,0.1,0.1,0.2,0.1,0.4v0.4c0,0.2,0,0.3-0.1,0.4c-0.1,0.1-0.2,0.1-0.4,0.1h-5.6C152.2,67,152.1,67,152,66.9z"/>
			<path class="st1" d="M160.8,66.9c-0.1-0.1-0.1-0.2-0.1-0.4v-8.2c0-0.2,0-0.3,0.1-0.4c0.1-0.1,0.2-0.1,0.4-0.1h3.5
				c1.1,0,1.9,0.3,2.5,0.8c0.5,0.5,0.8,1.3,0.8,2.3c0,1-0.3,1.7-0.8,2.3c-0.5,0.5-1.4,0.8-2.5,0.8h-2.2v2.6c0,0.2,0,0.3-0.1,0.4
				c-0.1,0.1-0.2,0.1-0.4,0.1h-0.7C161,67,160.9,67,160.8,66.9z M164.6,62.6c0.6,0,1-0.1,1.2-0.4c0.3-0.3,0.4-0.7,0.4-1.3
				c0-0.6-0.1-1-0.4-1.3c-0.3-0.3-0.7-0.4-1.2-0.4h-2.2v3.5H164.6z"/>
			<path class="st1" d="M168.3,66.8c0-0.1,0-0.1,0-0.2l3.6-8.5c0.1-0.1,0.1-0.2,0.2-0.3c0.1,0,0.2-0.1,0.3-0.1h0.7
				c0.1,0,0.2,0,0.3,0.1c0.1,0.1,0.1,0.1,0.2,0.3l3.6,8.5c0,0.1,0,0.1,0,0.2c0,0.1-0.1,0.2-0.2,0.2h-1.2c-0.1,0-0.2,0-0.3,0
				c0,0-0.1-0.1-0.1-0.2l-0.8-1.9h-3.7l-0.8,1.9c0,0.1-0.1,0.2-0.1,0.2c-0.1,0-0.1,0-0.3,0h-1.2C168.4,67,168.3,66.9,168.3,66.8z
				 M174.2,63.6l-1.4-3.6l-1.4,3.6H174.2z"/>
			<path class="st1" d="M179.6,66.9c-0.1-0.1-0.1-0.2-0.1-0.4v-8.2c0-0.2,0-0.3,0.1-0.4c0.1-0.1,0.2-0.1,0.4-0.1h3.5
				c1.1,0,1.8,0.2,2.4,0.7c0.5,0.5,0.8,1.2,0.8,2.2c0,0.6-0.1,1.2-0.4,1.6c-0.3,0.4-0.7,0.8-1.3,1l1.5,3.3c0,0.1,0,0.1,0,0.1
				c0,0.1-0.1,0.2-0.2,0.2h-1.1c-0.1,0-0.2,0-0.3,0c-0.1,0-0.1-0.1-0.1-0.2l-1.4-3.2h-2.2v3c0,0.2,0,0.3-0.1,0.4
				c-0.1,0.1-0.2,0.1-0.4,0.1H180C179.8,67,179.7,67,179.6,66.9z M183.2,62.2c0.6,0,1.1-0.1,1.4-0.4c0.3-0.2,0.4-0.6,0.4-1.2
				c0-0.5-0.1-0.9-0.4-1.2c-0.3-0.3-0.7-0.4-1.2-0.4h-2.2v3.1H183.2z"/>
			<path class="st1" d="M189.1,66.9c-0.1-0.1-0.1-0.2-0.1-0.4v-8.2c0-0.2,0-0.3,0.1-0.4c0.1-0.1,0.2-0.1,0.4-0.1h0.7
				c0.2,0,0.3,0,0.4,0.1c0.1,0.1,0.1,0.2,0.1,0.4v8.2c0,0.2,0,0.3-0.1,0.4c-0.1,0.1-0.2,0.1-0.4,0.1h-0.7
				C189.3,67,189.2,67,189.1,66.9z"/>
			<path class="st1" d="M193.4,66.9c-0.1-0.1-0.1-0.2-0.1-0.4v-8.2c0-0.2,0-0.3,0.1-0.4c0.1-0.1,0.2-0.1,0.4-0.1h0.6
				c0.1,0,0.2,0,0.3,0.1c0.1,0,0.1,0.1,0.2,0.2l4.5,6.2v-6c0-0.2,0-0.3,0.1-0.4c0.1-0.1,0.2-0.1,0.4-0.1h0.7c0.2,0,0.3,0,0.4,0.1
				c0.1,0.1,0.1,0.2,0.1,0.4v8.2c0,0.2,0,0.3-0.1,0.4c-0.1,0.1-0.2,0.1-0.4,0.1H200c-0.1,0-0.2,0-0.3,0c-0.1,0-0.1-0.1-0.2-0.2
				l-4.5-6.2v6c0,0.2,0,0.3-0.1,0.4c-0.1,0.1-0.2,0.1-0.4,0.1h-0.7C193.6,67,193.5,67,193.4,66.9z"/>
			<path class="st1" d="M204.7,66c-0.8-0.8-1.3-2-1.3-3.6c0-1.5,0.4-2.7,1.3-3.6c0.8-0.8,2-1.3,3.6-1.3c0.6,0,1.2,0.1,1.7,0.2
				c0.5,0.1,1,0.3,1.3,0.5c0.1,0.1,0.1,0.1,0.1,0.2c0,0,0,0.1-0.1,0.2l-0.4,0.7c-0.1,0.1-0.1,0.1-0.2,0.1c0,0-0.1,0-0.2-0.1
				c-0.6-0.3-1.3-0.5-2.2-0.5c-1,0-1.8,0.3-2.4,0.9c-0.6,0.6-0.9,1.5-0.9,2.7c0,1.2,0.3,2.1,0.9,2.7c0.6,0.6,1.4,0.9,2.3,0.9
				c0.4,0,0.7,0,1.1-0.1c0.3-0.1,0.6-0.1,0.8-0.3v-2.5h-1.8c-0.2,0-0.3,0-0.4-0.1c-0.1-0.1-0.1-0.2-0.1-0.4v-0.4
				c0-0.2,0-0.3,0.1-0.4c0.1-0.1,0.2-0.1,0.4-0.1h2.9c0.2,0,0.3,0,0.4,0.1c0.1,0.1,0.1,0.2,0.1,0.4v3.6c0,0.1,0,0.2,0,0.3
				c0,0.1-0.1,0.1-0.2,0.2c-0.8,0.5-2,0.8-3.4,0.8C206.8,67.2,205.6,66.8,204.7,66z"/>
			<path class="st1" d="M220.6,66.9c-0.1-0.1-0.1-0.2-0.1-0.4v-8.2c0-0.2,0-0.3,0.1-0.4c0.1-0.1,0.2-0.1,0.4-0.1h5.6
				c0.2,0,0.3,0,0.4,0.1c0.1,0.1,0.1,0.2,0.1,0.4v0.4c0,0.2,0,0.3-0.1,0.4s-0.2,0.1-0.4,0.1h-4.4v2.6h3.2c0.2,0,0.3,0,0.4,0.1
				c0.1,0.1,0.1,0.2,0.1,0.4v0.4c0,0.2,0,0.3-0.1,0.4c-0.1,0.1-0.2,0.1-0.4,0.1h-3.2v3.5c0,0.2,0,0.3-0.1,0.4
				c-0.1,0.1-0.2,0.1-0.4,0.1h-0.7C220.8,67,220.6,67,220.6,66.9z"/>
			<path class="st1" d="M229.4,66c-0.8-0.8-1.2-2-1.2-3.6s0.4-2.7,1.2-3.6c0.8-0.8,1.9-1.3,3.4-1.3c1.5,0,2.6,0.4,3.4,1.3
				c0.8,0.8,1.2,2,1.2,3.6s-0.4,2.7-1.2,3.6c-0.8,0.8-2,1.3-3.4,1.3C231.3,67.2,230.2,66.8,229.4,66z M235,65
				c0.5-0.6,0.7-1.5,0.7-2.6c0-1.2-0.2-2-0.7-2.6c-0.5-0.6-1.2-0.9-2.2-0.9c-1,0-1.7,0.3-2.2,0.9c-0.5,0.6-0.8,1.5-0.8,2.6
				c0,1.2,0.3,2,0.8,2.6s1.2,0.9,2.2,0.9C233.8,65.9,234.5,65.6,235,65z"/>
			<path class="st1" d="M239.9,66.9c-0.1-0.1-0.1-0.2-0.1-0.4v-8.2c0-0.2,0-0.3,0.1-0.4c0.1-0.1,0.2-0.1,0.4-0.1h3.5
				c1.1,0,1.8,0.2,2.4,0.7c0.5,0.5,0.8,1.2,0.8,2.2c0,0.6-0.1,1.2-0.4,1.6c-0.3,0.4-0.7,0.8-1.3,1l1.5,3.3c0,0.1,0,0.1,0,0.1
				c0,0.1-0.1,0.2-0.2,0.2h-1.1c-0.1,0-0.2,0-0.3,0c-0.1,0-0.1-0.1-0.1-0.2l-1.4-3.2h-2.2v3c0,0.2,0,0.3-0.1,0.4
				c-0.1,0.1-0.2,0.1-0.4,0.1h-0.7C240.1,67,240,67,239.9,66.9z M243.5,62.2c0.6,0,1.1-0.1,1.4-0.4c0.3-0.2,0.4-0.6,0.4-1.2
				c0-0.5-0.1-0.9-0.4-1.2c-0.3-0.3-0.7-0.4-1.2-0.4h-2.2v3.1H243.5z"/>
			<path class="st1" d="M257.6,66.9c-0.1,0-0.1-0.1-0.1-0.3l-2.1-8.6c0,0,0-0.1,0-0.1c0-0.1,0.1-0.2,0.3-0.2h1.1
				c0.1,0,0.2,0,0.3,0.1c0.1,0,0.1,0.1,0.1,0.2l1.4,6l1.6-5.3c0-0.1,0.1-0.2,0.1-0.2s0.1-0.1,0.3-0.1h0.6c0.1,0,0.2,0,0.3,0.1
				c0.1,0,0.1,0.1,0.1,0.2l1.6,5.3l1.3-6c0-0.1,0.1-0.2,0.1-0.2c0.1,0,0.2-0.1,0.3-0.1h1.1c0.2,0,0.3,0.1,0.3,0.2c0,0.1,0,0.1,0,0.1
				l-2.2,8.6c0,0.1-0.1,0.2-0.2,0.3c-0.1,0-0.2,0.1-0.3,0.1h-0.7c-0.1,0-0.2,0-0.3-0.1c-0.1,0-0.1-0.1-0.2-0.3l-1.6-5.4l-1.6,5.4
				c0,0.1-0.1,0.2-0.2,0.3s-0.2,0.1-0.3,0.1h-0.7C257.8,67,257.7,67,257.6,66.9z"/>
			<path class="st1" d="M268.5,66c-0.8-0.8-1.2-2-1.2-3.6s0.4-2.7,1.2-3.6c0.8-0.8,1.9-1.3,3.4-1.3c1.5,0,2.6,0.4,3.4,1.3
				c0.8,0.8,1.2,2,1.2,3.6s-0.4,2.7-1.2,3.6c-0.8,0.8-2,1.3-3.4,1.3C270.5,67.2,269.3,66.8,268.5,66z M274.1,65
				c0.5-0.6,0.7-1.5,0.7-2.6c0-1.2-0.2-2-0.7-2.6c-0.5-0.6-1.2-0.9-2.2-0.9c-1,0-1.7,0.3-2.2,0.9c-0.5,0.6-0.8,1.5-0.8,2.6
				c0,1.2,0.3,2,0.8,2.6c0.5,0.6,1.2,0.9,2.2,0.9C272.9,65.9,273.6,65.6,274.1,65z"/>
			<path class="st1" d="M279,66.9c-0.1-0.1-0.1-0.2-0.1-0.4v-8.2c0-0.2,0-0.3,0.1-0.4c0.1-0.1,0.2-0.1,0.4-0.1h3.5
				c1.1,0,1.8,0.2,2.4,0.7c0.5,0.5,0.8,1.2,0.8,2.2c0,0.6-0.1,1.2-0.4,1.6c-0.3,0.4-0.7,0.8-1.3,1l1.5,3.3c0,0.1,0,0.1,0,0.1
				c0,0.1-0.1,0.2-0.2,0.2h-1.1c-0.1,0-0.2,0-0.3,0c-0.1,0-0.1-0.1-0.1-0.2l-1.4-3.2h-2.2v3c0,0.2,0,0.3-0.1,0.4
				c-0.1,0.1-0.2,0.1-0.4,0.1h-0.7C279.2,67,279.1,67,279,66.9z M282.6,62.2c0.6,0,1.1-0.1,1.4-0.4c0.3-0.2,0.4-0.6,0.4-1.2
				c0-0.5-0.1-0.9-0.4-1.2c-0.3-0.3-0.7-0.4-1.2-0.4h-2.2v3.1H282.6z"/>
			<path class="st1" d="M288.5,66.9c-0.1-0.1-0.1-0.2-0.1-0.4v-8.2c0-0.2,0-0.3,0.1-0.4c0.1-0.1,0.2-0.1,0.4-0.1h0.7
				c0.2,0,0.3,0,0.4,0.1c0.1,0.1,0.1,0.2,0.1,0.4v8.2c0,0.2,0,0.3-0.1,0.4c-0.1,0.1-0.2,0.1-0.4,0.1h-0.7
				C288.8,67,288.6,67,288.5,66.9z M294,67c0,0-0.1-0.1-0.2-0.1l-3.3-3.9c-0.1-0.1-0.1-0.2-0.2-0.3c0-0.1-0.1-0.2-0.1-0.3
				s0-0.2,0-0.3c0-0.1,0.1-0.2,0.2-0.3l3.2-3.9c0.1-0.1,0.1-0.1,0.2-0.1c0.1,0,0.1,0,0.3,0h1.2c0.1,0,0.1,0,0.1,0.1
				c0,0,0.1,0.1,0.1,0.1c0,0.1,0,0.1-0.1,0.2l-3.5,4.2l3.6,4.2c0.1,0.1,0.1,0.1,0.1,0.2c0,0.1,0,0.1-0.1,0.1c0,0-0.1,0.1-0.1,0.1
				h-1.3C294.1,67,294.1,67,294,67z"/>
			<path class="st1" d="M297.7,68.4c0,0,0-0.1,0-0.1l0.7-2.3c0-0.1,0.1-0.2,0.2-0.3c0.1,0,0.2-0.1,0.3-0.1h0.7
				c0.2,0,0.3,0.1,0.3,0.2c0,0.1,0,0.1-0.1,0.2l-1,2.3c0,0.1-0.1,0.1-0.1,0.2c-0.1,0-0.1,0.1-0.3,0.1H298
				C297.8,68.6,297.7,68.6,297.7,68.4z"/>
			<path class="st1" d="M133.2,85.2c-0.1-0.1-0.1-0.2-0.1-0.4v-8.2c0-0.2,0-0.3,0.1-0.4c0.1-0.1,0.2-0.1,0.4-0.1h3.5
				c1.1,0,1.9,0.3,2.5,0.8c0.5,0.5,0.8,1.3,0.8,2.3c0,1-0.3,1.7-0.8,2.3c-0.5,0.5-1.4,0.8-2.5,0.8h-2.2v2.6c0,0.2,0,0.3-0.1,0.4
				c-0.1,0.1-0.2,0.1-0.4,0.1h-0.7C133.4,85.3,133.3,85.3,133.2,85.2z M137,80.9c0.6,0,1-0.1,1.2-0.4c0.3-0.3,0.4-0.7,0.4-1.3
				c0-0.6-0.1-1-0.4-1.3c-0.3-0.3-0.7-0.4-1.2-0.4h-2.2v3.5H137z"/>
			<path class="st1" d="M142.5,85.2c-0.1-0.1-0.1-0.2-0.1-0.4v-8.2c0-0.2,0-0.3,0.1-0.4c0.1-0.1,0.2-0.1,0.4-0.1h3.5
				c1.1,0,1.8,0.2,2.4,0.7c0.5,0.5,0.8,1.2,0.8,2.2c0,0.6-0.1,1.2-0.4,1.6c-0.3,0.4-0.7,0.8-1.3,1l1.5,3.3c0,0.1,0,0.1,0,0.1
				c0,0.1-0.1,0.2-0.2,0.2H148c-0.1,0-0.2,0-0.3,0c-0.1,0-0.1-0.1-0.1-0.2l-1.4-3.2h-2.2v3c0,0.2,0,0.3-0.1,0.4
				c-0.1,0.1-0.2,0.1-0.4,0.1h-0.7C142.7,85.3,142.5,85.3,142.5,85.2z M146,80.5c0.6,0,1.1-0.1,1.4-0.4c0.3-0.2,0.4-0.6,0.4-1.2
				c0-0.5-0.1-0.9-0.4-1.2c-0.3-0.3-0.7-0.4-1.2-0.4h-2.2v3.1H146z"/>
			<path class="st1" d="M152,85.2c-0.1-0.1-0.1-0.2-0.1-0.4v-8.2c0-0.2,0-0.3,0.1-0.4c0.1-0.1,0.2-0.1,0.4-0.1h5.6
				c0.2,0,0.3,0,0.4,0.1c0.1,0.1,0.1,0.2,0.1,0.4v0.4c0,0.2,0,0.3-0.1,0.4c-0.1,0.1-0.2,0.1-0.4,0.1h-4.4V80h3.2
				c0.2,0,0.3,0,0.4,0.1c0.1,0.1,0.1,0.2,0.1,0.4v0.3c0,0.2,0,0.3-0.1,0.4c-0.1,0.1-0.2,0.1-0.4,0.1h-3.2V84h4.4
				c0.2,0,0.3,0,0.4,0.1c0.1,0.1,0.1,0.2,0.1,0.4v0.4c0,0.2,0,0.3-0.1,0.4c-0.1,0.1-0.2,0.1-0.4,0.1h-5.6
				C152.2,85.3,152.1,85.3,152,85.2z"/>
			<path class="st1" d="M160.8,85.2c-0.1-0.1-0.1-0.2-0.1-0.4v-8.2c0-0.2,0-0.3,0.1-0.4c0.1-0.1,0.2-0.1,0.4-0.1h3.5
				c1.1,0,1.9,0.3,2.5,0.8c0.5,0.5,0.8,1.3,0.8,2.3c0,1-0.3,1.7-0.8,2.3c-0.5,0.5-1.4,0.8-2.5,0.8h-2.2v2.6c0,0.2,0,0.3-0.1,0.4
				c-0.1,0.1-0.2,0.1-0.4,0.1h-0.7C161,85.3,160.9,85.3,160.8,85.2z M164.6,80.9c0.6,0,1-0.1,1.2-0.4c0.3-0.3,0.4-0.7,0.4-1.3
				c0-0.6-0.1-1-0.4-1.3c-0.3-0.3-0.7-0.4-1.2-0.4h-2.2v3.5H164.6z"/>
			<path class="st1" d="M168.3,85.1c0-0.1,0-0.1,0-0.2l3.6-8.5c0.1-0.1,0.1-0.2,0.2-0.3c0.1,0,0.2-0.1,0.3-0.1h0.7
				c0.1,0,0.2,0,0.3,0.1c0.1,0.1,0.1,0.1,0.2,0.3l3.6,8.5c0,0.1,0,0.1,0,0.2c0,0.1-0.1,0.2-0.2,0.2h-1.2c-0.1,0-0.2,0-0.3,0
				c0,0-0.1-0.1-0.1-0.2l-0.8-1.9h-3.7l-0.8,1.9c0,0.1-0.1,0.2-0.1,0.2c-0.1,0-0.1,0-0.3,0h-1.2C168.4,85.3,168.3,85.2,168.3,85.1z
				 M174.2,81.9l-1.4-3.6l-1.4,3.6H174.2z"/>
			<path class="st1" d="M179.6,85.2c-0.1-0.1-0.1-0.2-0.1-0.4v-8.2c0-0.2,0-0.3,0.1-0.4c0.1-0.1,0.2-0.1,0.4-0.1h3.5
				c1.1,0,1.8,0.2,2.4,0.7c0.5,0.5,0.8,1.2,0.8,2.2c0,0.6-0.1,1.2-0.4,1.6c-0.3,0.4-0.7,0.8-1.3,1l1.5,3.3c0,0.1,0,0.1,0,0.1
				c0,0.1-0.1,0.2-0.2,0.2h-1.1c-0.1,0-0.2,0-0.3,0c-0.1,0-0.1-0.1-0.1-0.2l-1.4-3.2h-2.2v3c0,0.2,0,0.3-0.1,0.4
				c-0.1,0.1-0.2,0.1-0.4,0.1H180C179.8,85.3,179.7,85.3,179.6,85.2z M183.2,80.5c0.6,0,1.1-0.1,1.4-0.4c0.3-0.2,0.4-0.6,0.4-1.2
				c0-0.5-0.1-0.9-0.4-1.2c-0.3-0.3-0.7-0.4-1.2-0.4h-2.2v3.1H183.2z"/>
			<path class="st1" d="M189.1,85.2c-0.1-0.1-0.1-0.2-0.1-0.4v-8.2c0-0.2,0-0.3,0.1-0.4c0.1-0.1,0.2-0.1,0.4-0.1h0.7
				c0.2,0,0.3,0,0.4,0.1c0.1,0.1,0.1,0.2,0.1,0.4v8.2c0,0.2,0,0.3-0.1,0.4c-0.1,0.1-0.2,0.1-0.4,0.1h-0.7
				C189.3,85.3,189.2,85.3,189.1,85.2z"/>
			<path class="st1" d="M193.4,85.2c-0.1-0.1-0.1-0.2-0.1-0.4v-8.2c0-0.2,0-0.3,0.1-0.4c0.1-0.1,0.2-0.1,0.4-0.1h0.6
				c0.1,0,0.2,0,0.3,0.1c0.1,0,0.1,0.1,0.2,0.2l4.5,6.2v-6c0-0.2,0-0.3,0.1-0.4c0.1-0.1,0.2-0.1,0.4-0.1h0.7c0.2,0,0.3,0,0.4,0.1
				c0.1,0.1,0.1,0.2,0.1,0.4v8.2c0,0.2,0,0.3-0.1,0.4c-0.1,0.1-0.2,0.1-0.4,0.1H200c-0.1,0-0.2,0-0.3,0c-0.1,0-0.1-0.1-0.2-0.2
				l-4.5-6.2v6c0,0.2,0,0.3-0.1,0.4c-0.1,0.1-0.2,0.1-0.4,0.1h-0.7C193.6,85.3,193.5,85.3,193.4,85.2z"/>
			<path class="st1" d="M204.7,84.3c-0.8-0.8-1.3-2-1.3-3.6c0-1.5,0.4-2.7,1.3-3.6c0.8-0.8,2-1.3,3.6-1.3c0.6,0,1.2,0.1,1.7,0.2
				c0.5,0.1,1,0.3,1.3,0.5c0.1,0.1,0.1,0.1,0.1,0.2c0,0,0,0.1-0.1,0.2l-0.4,0.7c-0.1,0.1-0.1,0.1-0.2,0.1c0,0-0.1,0-0.2-0.1
				c-0.6-0.3-1.3-0.5-2.2-0.5c-1,0-1.8,0.3-2.4,0.9c-0.6,0.6-0.9,1.5-0.9,2.7c0,1.2,0.3,2.1,0.9,2.7c0.6,0.6,1.4,0.9,2.3,0.9
				c0.4,0,0.7,0,1.1-0.1c0.3-0.1,0.6-0.1,0.8-0.3v-2.5h-1.8c-0.2,0-0.3,0-0.4-0.1c-0.1-0.1-0.1-0.2-0.1-0.4v-0.4
				c0-0.2,0-0.3,0.1-0.4c0.1-0.1,0.2-0.1,0.4-0.1h2.9c0.2,0,0.3,0,0.4,0.1c0.1,0.1,0.1,0.2,0.1,0.4v3.6c0,0.1,0,0.2,0,0.3
				c0,0.1-0.1,0.1-0.2,0.2c-0.8,0.5-2,0.8-3.4,0.8C206.8,85.5,205.6,85.1,204.7,84.3z"/>
			<path class="st1" d="M220.6,85.2c-0.1-0.1-0.1-0.2-0.1-0.4v-8.2c0-0.2,0-0.3,0.1-0.4s0.2-0.1,0.4-0.1h5.6c0.2,0,0.3,0,0.4,0.1
				c0.1,0.1,0.1,0.2,0.1,0.4v0.4c0,0.2,0,0.3-0.1,0.4c-0.1,0.1-0.2,0.1-0.4,0.1h-4.4V80h3.2c0.2,0,0.3,0,0.4,0.1
				c0.1,0.1,0.1,0.2,0.1,0.4v0.4c0,0.2,0,0.3-0.1,0.4c-0.1,0.1-0.2,0.1-0.4,0.1h-3.2v3.5c0,0.2,0,0.3-0.1,0.4
				c-0.1,0.1-0.2,0.1-0.4,0.1h-0.7C220.8,85.3,220.6,85.3,220.6,85.2z"/>
			<path class="st1" d="M229.4,84.2c-0.8-0.8-1.2-2-1.2-3.6s0.4-2.7,1.2-3.6c0.8-0.8,1.9-1.3,3.4-1.3c1.5,0,2.6,0.4,3.4,1.3
				c0.8,0.8,1.2,2,1.2,3.6s-0.4,2.7-1.2,3.6c-0.8,0.8-2,1.3-3.4,1.3C231.3,85.5,230.2,85.1,229.4,84.2z M235,83.3
				c0.5-0.6,0.7-1.5,0.7-2.6c0-1.2-0.2-2-0.7-2.6c-0.5-0.6-1.2-0.9-2.2-0.9c-1,0-1.7,0.3-2.2,0.9c-0.5,0.6-0.8,1.5-0.8,2.6
				c0,1.2,0.3,2,0.8,2.6s1.2,0.9,2.2,0.9C233.8,84.2,234.5,83.9,235,83.3z"/>
			<path class="st1" d="M239.9,85.2c-0.1-0.1-0.1-0.2-0.1-0.4v-8.2c0-0.2,0-0.3,0.1-0.4s0.2-0.1,0.4-0.1h3.5c1.1,0,1.8,0.2,2.4,0.7
				c0.5,0.5,0.8,1.2,0.8,2.2c0,0.6-0.1,1.2-0.4,1.6c-0.3,0.4-0.7,0.8-1.3,1l1.5,3.3c0,0.1,0,0.1,0,0.1c0,0.1-0.1,0.2-0.2,0.2h-1.1
				c-0.1,0-0.2,0-0.3,0c-0.1,0-0.1-0.1-0.1-0.2l-1.4-3.2h-2.2v3c0,0.2,0,0.3-0.1,0.4c-0.1,0.1-0.2,0.1-0.4,0.1h-0.7
				C240.1,85.3,240,85.3,239.9,85.2z M243.5,80.5c0.6,0,1.1-0.1,1.4-0.4c0.3-0.2,0.4-0.6,0.4-1.2c0-0.5-0.1-0.9-0.4-1.2
				c-0.3-0.3-0.7-0.4-1.2-0.4h-2.2v3.1H243.5z"/>
			<path class="st1" d="M255.7,85.2c-0.1-0.1-0.1-0.2-0.1-0.4v-8.2c0-0.2,0-0.3,0.1-0.4c0.1-0.1,0.2-0.1,0.4-0.1h0.7
				c0.2,0,0.3,0,0.4,0.1s0.1,0.2,0.1,0.4V84h4.2c0.2,0,0.3,0,0.4,0.1c0.1,0.1,0.1,0.2,0.1,0.4v0.4c0,0.2,0,0.3-0.1,0.4
				c-0.1,0.1-0.2,0.1-0.4,0.1h-5.4C255.9,85.3,255.8,85.3,255.7,85.2z"/>
			<path class="st1" d="M264.1,85.2c-0.1-0.1-0.1-0.2-0.1-0.4v-8.2c0-0.2,0-0.3,0.1-0.4s0.2-0.1,0.4-0.1h0.7c0.2,0,0.3,0,0.4,0.1
				c0.1,0.1,0.1,0.2,0.1,0.4v8.2c0,0.2,0,0.3-0.1,0.4s-0.2,0.1-0.4,0.1h-0.7C264.3,85.3,264.1,85.3,264.1,85.2z"/>
			<path class="st1" d="M268.4,85.2c-0.1-0.1-0.1-0.2-0.1-0.4v-8.2c0-0.2,0-0.3,0.1-0.4s0.2-0.1,0.4-0.1h5.6c0.2,0,0.3,0,0.4,0.1
				c0.1,0.1,0.1,0.2,0.1,0.4v0.4c0,0.2,0,0.3-0.1,0.4c-0.1,0.1-0.2,0.1-0.4,0.1H270V80h3.2c0.2,0,0.3,0,0.4,0.1
				c0.1,0.1,0.1,0.2,0.1,0.4v0.4c0,0.2,0,0.3-0.1,0.4c-0.1,0.1-0.2,0.1-0.4,0.1H270v3.5c0,0.2,0,0.3-0.1,0.4s-0.2,0.1-0.4,0.1h-0.7
				C268.6,85.3,268.4,85.3,268.4,85.2z"/>
			<path class="st1" d="M277,85.2c-0.1-0.1-0.1-0.2-0.1-0.4v-8.2c0-0.2,0-0.3,0.1-0.4c0.1-0.1,0.2-0.1,0.4-0.1h5.6
				c0.2,0,0.3,0,0.4,0.1c0.1,0.1,0.1,0.2,0.1,0.4v0.4c0,0.2,0,0.3-0.1,0.4c-0.1,0.1-0.2,0.1-0.4,0.1h-4.4V80h3.2
				c0.2,0,0.3,0,0.4,0.1c0.1,0.1,0.1,0.2,0.1,0.4v0.3c0,0.2,0,0.3-0.1,0.4c-0.1,0.1-0.2,0.1-0.4,0.1h-3.2V84h4.4
				c0.2,0,0.3,0,0.4,0.1c0.1,0.1,0.1,0.2,0.1,0.4v0.4c0,0.2,0,0.3-0.1,0.4c-0.1,0.1-0.2,0.1-0.4,0.1h-5.6
				C277.2,85.3,277.1,85.3,277,85.2z"/>
		</g>
	</g>
</g>
<g>
	<path class="st2" d="M4.3,97.7c3-3.9,6.1-7.6,9.8-10.7c5.3-4.4,11-8.3,18-9.8c3.6-0.8,7.3-0.5,10.9-0.2c8.4,0.7,16.6,2,24.7,4.5
		c2.8,0.8,5.5,1.9,7.7,4c0.5,0.5,1,1,0.8,1.7c-0.2,0.9-1,1-1.7,1.1c-3.5,0.7-7.1,0.8-10.7,1.2c-2.3,0.3-4.6,0.8-7.2,2.1
		c2.9,1.4,5.4,2.3,8,3c7.5,1.8,14.7,0.5,21.9-2.1c4.9-1.7,9.9-3.1,15.2-3.2c1.3,0,2.6,0.1,3.8,0.4c1,0.2,1.7,0.8,1.7,2
		c0,1.1-0.1,2.4-1.5,2.6c-7.4,1.2-13.1,5.9-19.6,9.1c-7.7,3.7-15.7,6.2-24.4,5.9c-5.9-0.2-11.3-2.1-16.5-4.6
		c-8.9-4.4-18.3-7.4-28.2-8.4c-3.3-0.3-6.6-0.5-9.9,0.4C6.2,96.7,5.3,97.2,4.3,97.7z"/>
	<path class="st3" d="M68.6,92.3c2.1-1.1,4.5-0.6,6.7-1.2c1.8-0.5,3.4-1.2,3.9-3.1c0.4-1.9-0.5-3.5-1.9-4.9
		c-1.7-1.5-3.6-2.6-5.7-3.4c-1-0.4-1.3-0.9-1.1-2c1-5.6,0.8-11.3,0.7-17c-0.2-6.7-1.9-13.1-3.5-19.5c-0.2-0.7-0.6-1.5,0.3-2
		c1-0.5,1.4,0.4,1.9,1.1c3.8,5.3,7.6,10.5,12.8,14.5c5.5,4.3,13,2.7,17-2.7c1.1-1.5,1.9-3.3,2.9-4.9c0.4-0.6,0.7-1.5,1.7-1.1
		c0.8,0.3,0.7,1.1,0.6,1.8c-1.1,7.2-3,14.1-6,20.8c-3.5,8-8.7,14.7-15,20.7c-1.5,1.4-3.2,1.9-5,2.3C75.3,92.6,72,93,68.6,92.3z"/>
	<path class="st4" d="M48.2,74.5c-3.8-0.3-7.6-1-11.5-0.8c-3.1,0.1-6,0.8-8.9,1.8c-1.2,0.4-2,0.6-2.8-0.8c-4.8-8.3-7.5-17.3-9-26.7
		c-0.1-0.7-0.2-1.5,0.7-1.7c1.1-0.4,1.4,0.6,1.7,1.3C20,51,22,54.2,25.5,56c4.4,2.3,8.6,1.9,12.5-1c5-3.7,8.5-8.6,12.1-13.6
		c0.6-0.9,1-2.8,2.5-2.1c1.6,0.7,0.3,2.2,0,3.2c-2.7,10-3.8,20.2-3,30.5C49.7,74.1,49.6,74.9,48.2,74.5z"/>
</g>
<g>
	<circle class="st5" cx="2.7" cy="42.5" r="2.7"/>
	<circle class="st5" cx="17.5" cy="25.8" r="8.5"/>
	<circle class="st6" cx="8" cy="67.9" r="5"/>
	<circle class="st4" cx="31.6" cy="46.6" r="7.6"/>
	<circle class="st6" cx="60.3" cy="62" r="4.2"/>
	<circle class="st6" cx="47.7" cy="29.1" r="3.7"/>
	<circle class="st6" cx="76.2" cy="26.1" r="6.7"/>
	<circle class="st6" cx="96.7" cy="28.9" r="2.8"/>
	<circle class="st5" cx="89.2" cy="15.5" r="6.1"/>
	<circle class="st6" cx="71" cy="7.9" r="2.9"/>
	<circle class="st5" cx="43.2" cy="9.9" r="9.9"/>
	<circle class="st3" cx="88.9" cy="46.7" r="7.6"/>
	<circle class="st5" cx="108.7" cy="68.3" r="4.2"/>
</g>
</svg>
